<svg xmlns="http://www.w3.org/2000/svg" viewBox="0 0 100 100">
  <!-- Control panel nav icon: the mark alone, no tile, inheriting Craft's own colour. -->
  <rect x="14" y="23" width="10" height="44" rx="5"/>
  <path fill-rule="evenodd" d="
    M20,41 H76 A10,10 0 0 1 86,51 V67 H20 Z
    M33,46 H47 A3,3 0 0 1 50,49 V53 A3,3 0 0 1 47,56 H33 A3,3 0 0 1 30,53 V49 A3,3 0 0 1 33,46 Z
  "/>
  <rect x="16" y="67" width="9" height="10" rx="3"/>
  <rect x="76" y="67" width="9" height="10" rx="3"/>
</svg>
